HIERARCHY
ROOT joint_Root
{
	OFFSET 0.0 0.0 0.0
	CHANNELS 6 Xposition Yposition Zposition Zrotation Xrotation Yrotation 
	JOINT Hips
	{
		OFFSET 4.5925 91.4895 -427.239
		CHANNELS 6 Xposition Yposition Zposition Zrotation Xrotation Yrotation 
		JOINT Spine
		{
			OFFSET 15.7357 0.0 0.0
			CHANNELS 6 Xposition Yposition Zposition Zrotation Xrotation Yrotation 
			JOINT Chest
			{
				OFFSET 8.98455 -0.406207 0.0
				CHANNELS 6 Xposition Yposition Zposition Zrotation Xrotation Yrotation 
				JOINT Neck
				{
					OFFSET 16.3773 0.0 0.0
					CHANNELS 6 Xposition Yposition Zposition Zrotation Xrotation Yrotation 
					JOINT Head
					{
						OFFSET 6.45672 0.0 0.0
						CHANNELS 6 Xposition Yposition Zposition Zrotation Xrotation Yrotation 
						End Site
						{
							OFFSET 0.0 0.0 0.0
						}
					}
				}
				JOINT Shoulder_L
				{
					OFFSET 12.9942 -0.242716 4.98039
					CHANNELS 6 Xposition Yposition Zposition Zrotation Xrotation Yrotation 
					JOINT UpperArm_L
					{
						OFFSET 5.34809 0.0 0.0
						CHANNELS 6 Xposition Yposition Zposition Zrotation Xrotation Yrotation 
						JOINT LowerArm_L
						{
							OFFSET 24.3286 1.87007e-05 0.0
							CHANNELS 6 Xposition Yposition Zposition Zrotation Xrotation Yrotation 
							JOINT Hand_L
							{
								OFFSET 22.2916 0.0 0.0
								CHANNELS 6 Xposition Yposition Zposition Zrotation Xrotation Yrotation 
								End Site
								{
									OFFSET 0.0 0.0 0.0
								}
							}
						}
					}
				}
				JOINT Shoulder_R
				{
					OFFSET 12.9945 -0.242716 -4.98039
					CHANNELS 6 Xposition Yposition Zposition Zrotation Xrotation Yrotation 
					JOINT UpperArm_R
					{
						OFFSET -5.34813 0.0 0.0
						CHANNELS 6 Xposition Yposition Zposition Zrotation Xrotation Yrotation 
						JOINT LowerArm_R
						{
							OFFSET -24.3289 0.000322201 0.0
							CHANNELS 6 Xposition Yposition Zposition Zrotation Xrotation Yrotation 
							JOINT Hand_R
							{
								OFFSET -22.2915 -0.000108084 0.0
								CHANNELS 6 Xposition Yposition Zposition Zrotation Xrotation Yrotation 
								End Site
								{
									OFFSET 0.0 0.0 0.0
								}
							}
						}
					}
				}
			}
		}
		JOINT UpperLeg_L
		{
			OFFSET -2.19248 -6.46944 0.0
			CHANNELS 6 Xposition Yposition Zposition Zrotation Xrotation Yrotation 
			JOINT LowerLeg_L
			{
				OFFSET 39.0811 0.0 -1.23785e-05
				CHANNELS 6 Xposition Yposition Zposition Zrotation Xrotation Yrotation 
				JOINT Foot_L
				{
					OFFSET 40.9854 0.0 -1.26872e-05
					CHANNELS 6 Xposition Yposition Zposition Zrotation Xrotation Yrotation 
					JOINT Toes_L
					{
						OFFSET 11.7543 0.0 0.0
						CHANNELS 6 Xposition Yposition Zposition Zrotation Xrotation Yrotation 
						End Site
						{
							OFFSET 0.0 0.0 0.0
						}
					}
				}
			}
		}
		JOINT UpperLeg_R
		{
			OFFSET -2.19251 6.46944 0.0
			CHANNELS 6 Xposition Yposition Zposition Zrotation Xrotation Yrotation 
			JOINT LowerLeg_R
			{
				OFFSET -39.0811 -0.00228153 -0.0401928
				CHANNELS 6 Xposition Yposition Zposition Zrotation Xrotation Yrotation 
				JOINT Foot_R
				{
					OFFSET -40.9854 0.0 0.0
					CHANNELS 6 Xposition Yposition Zposition Zrotation Xrotation Yrotation 
					JOINT Toes_R
					{
						OFFSET -11.7543 0.0 0.0
						CHANNELS 6 Xposition Yposition Zposition Zrotation Xrotation Yrotation 
						End Site
						{
							OFFSET 0.0 0.0 0.0
						}
					}
				}
			}
		}
	}
}
MOTION
Frames:	7
Frame Time:	0.0333333
0.000000 0.000000 0.000000 0.000000 0.000000 -0.000000 134.259000 87.980400 151.975000 93.993800 -49.834900 6.078110 15.735700 0.000005 -0.000001 77.900900 80.798200 -77.289200 8.984550 -0.406207 -0.000000 10.266400 -3.818750 1.566190 16.377300 -0.000001 -0.000001 5.083540 -14.158000 4.142520 6.456720 -0.000001 -0.000000 3.248240 -16.686000 5.922470 12.994200 -0.242716 4.980390 -90.967800 3.386140 -74.038700 5.348090 -0.000007 -0.000001 -59.949500 28.611900 -20.280900 24.328600 0.000019 0.000005 11.626600 16.269900 -36.293800 22.291600 -0.000001 0.000005 14.695100 5.294410 0.228552 12.994500 -0.242716 -4.980390 87.971800 10.039000 -78.516200 -5.348130 -0.000001 -0.000004 -63.934100 24.802200 -8.560870 -24.328900 0.000322 -0.000009 0.668492 2.467100 -15.193000 -22.291500 -0.000108 -0.000004 14.915200 5.377140 -2.207740 -2.192480 -6.469440 -0.000000 -175.961000 -14.925300 -14.869900 39.081100 -0.000007 -0.000012 0.173819 -0.066216 69.144100 40.985400 -0.000006 -0.000013 -1.901420 0.085527 -50.225700 11.754300 -0.000000 0.000003 -0.005411 -0.065395 -19.237800 -2.192510 6.469440 -0.000001 -175.671000 13.699500 163.504000 -39.081100 -0.002282 -0.040193 -0.048819 0.055615 43.124900 -40.985400 0.000008 0.000006 13.813000 -1.568040 -75.545800 -11.754300 -0.000006 -0.000006 -0.001067 -0.016348 -17.238000
0.000000 0.000000 0.000000 0.000000 0.000000 -0.000000 132.961000 88.207700 153.404000 94.598600 -51.721400 6.605290 15.735700 0.000005 -0.000001 79.976900 80.885700 -79.493900 8.984550 -0.406207 -0.000000 10.209100 -3.141640 1.246130 16.377300 -0.000001 -0.000001 5.118030 -13.963700 4.339640 6.456720 -0.000001 -0.000000 3.329800 -16.609800 6.212500 12.994200 -0.242716 4.980390 -90.966800 3.339750 -73.845200 5.348090 -0.000007 -0.000001 -61.678800 29.779600 -18.323200 24.328600 0.000019 0.000005 12.547300 17.757200 -36.120200 22.291600 -0.000001 0.000005 14.392100 5.296120 0.180177 12.994500 -0.242716 -4.980390 88.049400 9.872670 -78.765500 -5.348130 -0.000001 -0.000004 -62.989800 25.039700 -10.281600 -24.328900 0.000322 -0.000009 0.564505 1.865310 -16.870500 -22.291500 -0.000108 -0.000004 15.181900 5.379350 -2.277360 -2.192480 -6.469440 -0.000000 -177.184000 -12.180400 -17.317100 39.081100 -0.000007 -0.000012 0.101641 -0.035846 70.570600 40.985400 -0.000006 -0.000013 0.764273 -2.525620 -54.192500 11.754300 -0.000000 0.000003 -0.004500 -0.056551 -18.877400 -2.192510 6.469440 -0.000001 -176.360000 12.592700 165.549000 -39.081100 -0.002282 -0.040193 0.050968 -0.052764 42.111300 -40.985400 0.000008 0.000006 14.554500 -1.165660 -76.499200 -11.754300 -0.000006 -0.000006 -0.001144 -0.017429 -17.281900
0.000000 0.000000 0.000000 0.000000 0.000000 -0.000000 131.744000 88.573500 154.717000 95.080000 -53.506100 6.919730 15.735700 0.000005 -0.000001 81.415600 81.004000 -81.065900 8.984550 -0.406207 -0.000000 10.040500 -2.661630 0.932919 16.377300 -0.000001 -0.000001 5.176620 -13.750200 4.401750 6.456720 -0.000001 -0.000000 3.296540 -16.470500 6.236670 12.994200 -0.242716 4.980390 -90.935300 3.203480 -73.714600 5.348090 -0.000007 -0.000001 -63.568100 30.402200 -16.143900 24.328600 0.000019 0.000005 12.261100 18.243300 -34.768400 22.291600 -0.000001 0.000005 13.967400 5.299950 0.073749 12.994500 -0.242716 -4.980390 88.145300 9.579190 -78.988700 -5.348130 -0.000001 -0.000004 -62.059000 25.670500 -12.032800 -24.328900 0.000322 -0.000009 0.648207 1.850130 -19.343400 -22.291500 -0.000108 -0.000004 15.777600 5.388550 -2.567440 -2.192480 -6.469440 -0.000000 -178.004000 -8.972980 -19.335200 39.081100 -0.000007 -0.000012 0.045762 -0.017461 69.108800 40.985400 -0.000006 -0.000013 1.776070 -4.768260 -57.323800 11.754300 -0.000000 0.000003 -0.003954 -0.050965 -18.649900 -2.192510 6.469440 -0.000001 -177.104000 11.776600 167.528000 -39.081100 -0.002282 -0.040193 0.046330 -0.050195 40.620400 -40.985400 0.000008 0.000006 14.451000 -0.118090 -76.768000 -11.754300 -0.000006 -0.000006 -0.001221 -0.018497 -17.325300
0.000000 0.000000 0.000000 0.000000 0.000000 -0.000000 130.658000 88.958100 155.881000 95.479700 -55.543000 6.872650 15.735700 0.000005 -0.000001 82.971500 81.198800 -82.770000 8.984550 -0.406207 -0.000000 9.712920 -2.137580 0.584414 16.377300 -0.000001 -0.000001 5.084090 -13.540300 4.363580 6.456720 -0.000001 -0.000000 3.190990 -16.310000 6.252950 12.994200 -0.242716 4.980390 -90.903700 3.077570 -73.627100 5.348090 -0.000007 -0.000001 -65.253500 30.600900 -14.041500 24.328600 0.000019 0.000005 11.345000 18.229800 -32.674300 22.291600 -0.000001 0.000005 13.232700 5.297050 0.155139 12.994500 -0.242716 -4.980390 88.252700 9.204090 -79.202500 -5.348130 -0.000001 -0.000004 -61.243100 26.216100 -13.796300 -24.328900 0.000322 -0.000009 0.547449 1.338340 -22.304700 -22.291500 -0.000108 -0.000004 16.040100 5.407050 -3.167520 -2.192480 -6.469440 -0.000000 -178.225000 -5.850350 -21.029800 39.081100 -0.000007 -0.000012 0.017677 -0.008210 65.073300 40.985400 -0.000006 -0.000013 2.312260 -5.025290 -60.367600 11.754300 -0.000000 0.000003 -0.003688 -0.048158 -18.535600 -2.192510 6.469440 -0.000001 -177.748000 11.293800 169.079000 -39.081100 -0.002282 -0.040193 0.037160 -0.041914 38.949000 -40.985400 0.000008 0.000006 14.514500 1.536190 -76.834300 -11.754300 -0.000006 -0.000006 -0.001319 -0.019835 -17.379700
0.000000 0.000000 0.000000 0.000000 0.000000 -0.000000 129.612000 89.269400 157.024000 95.918900 -57.853900 6.935010 15.735700 0.000005 -0.000001 84.690500 81.310200 -84.694800 8.984550 -0.406207 -0.000000 9.541630 -1.598960 0.124859 16.377300 -0.000001 -0.000001 4.817790 -13.202900 4.348600 6.456720 -0.000001 -0.000000 2.927710 -16.089000 6.366180 12.994200 -0.242716 4.980390 -90.878400 2.967410 -73.503200 5.348090 -0.000007 -0.000001 -66.524800 30.510500 -12.195200 24.328600 0.000019 0.000005 10.579300 18.585700 -30.370000 22.291600 -0.000001 0.000005 12.573500 5.294090 0.237612 12.994500 -0.242716 -4.980390 88.350200 8.946570 -79.507400 -5.348130 -0.000001 -0.000004 -60.300200 26.765500 -15.571700 -24.328900 0.000322 -0.000009 0.162968 0.340284 -25.776800 -22.291500 -0.000108 -0.000004 16.477400 5.418990 -3.564400 -2.192480 -6.469440 -0.000000 -177.884000 -3.190330 -21.980800 39.081100 -0.000007 -0.000012 0.013204 -0.008005 58.758200 40.985400 -0.000006 -0.000013 1.808810 -4.667850 -62.497300 11.754300 -0.000000 0.000003 -0.003888 -0.050279 -18.621900 -2.192510 6.469440 -0.000001 -178.397000 10.464400 170.436000 -39.081100 -0.002282 -0.040193 0.031945 -0.037244 37.579400 -40.985400 0.000008 0.000006 14.561500 3.100500 -76.804300 -11.754300 -0.000006 -0.000006 -0.224203 -0.287091 -17.659800
0.000000 0.000000 0.000000 0.000000 0.000000 -0.000000 128.665000 89.486000 158.122000 96.051200 -60.207600 6.584590 15.735700 0.000005 -0.000001 86.103000 81.411400 -86.273800 8.984550 -0.406207 -0.000000 9.371230 -1.163230 -0.245864 16.377300 -0.000001 -0.000001 4.352940 -12.825000 4.329660 6.456720 -0.000001 -0.000000 2.594450 -15.778000 6.455110 12.994200 -0.242716 4.980390 -90.850900 2.855860 -73.400300 5.348090 -0.000007 -0.000001 -67.454200 30.299300 -10.610800 24.328600 0.000019 0.000005 9.880250 19.198700 -27.908000 22.291600 -0.000001 0.000005 12.247000 5.291240 0.316925 12.994500 -0.242716 -4.980390 88.453000 8.632190 -79.799600 -5.348130 -0.000001 -0.000004 -59.381200 27.310100 -17.616100 -24.328900 0.000322 -0.000009 -0.192079 -0.344898 -28.958500 -22.291500 -0.000108 -0.000004 16.862800 5.441680 -4.343990 -2.192480 -6.469440 -0.000000 -176.928000 -1.106060 -22.605600 39.081100 -0.000007 -0.000012 0.014367 -0.011774 50.656300 40.985400 -0.000006 -0.000013 0.238571 -4.011770 -63.324300 11.754300 -0.000000 0.000003 -0.003598 -0.047199 -18.496500 -2.192510 6.469440 -0.000001 -178.828000 9.545660 171.355000 -39.081100 -0.002282 -0.040193 0.026517 -0.031392 36.501800 -40.985400 0.000008 0.000006 14.609600 4.599030 -76.768700 -11.754300 -0.000006 -0.000006 -0.424146 -0.526085 -18.088700
0.000000 0.000000 0.000000 0.000000 0.000000 -0.000000 127.753000 89.593600 159.235000 95.844700 -62.609700 5.860220 15.735700 0.000005 -0.000001 87.333300 81.500600 -87.633100 8.984550 -0.406207 -0.000000 9.212910 -0.790340 -0.535474 16.377300 -0.000001 -0.000001 3.855280 -12.347900 4.221120 6.456720 -0.000001 -0.000000 2.232270 -15.334800 6.640370 12.994200 -0.242716 4.980390 -90.816300 2.726120 -73.324200 5.348090 -0.000007 -0.000001 -68.117600 30.071900 -9.290670 24.328600 0.000019 0.000005 9.160250 19.864400 -25.387100 22.291600 -0.000001 0.000005 11.966300 5.280460 0.613834 12.994500 -0.242716 -4.980390 88.539900 8.391330 -80.092400 -5.348130 -0.000001 -0.000004 -58.330500 27.861800 -19.807200 -24.328900 0.000322 -0.000009 -0.285681 -0.458697 -31.809800 -22.291500 -0.000108 -0.000004 17.210100 5.445590 -4.482340 -2.192480 -6.469440 -0.000000 -175.589000 -0.041995 -22.904600 39.081100 -0.000007 -0.000012 0.013459 -0.015172 41.572600 40.985400 -0.000006 -0.000013 -0.658999 -2.723680 -63.219800 11.754300 -0.000000 0.000003 -0.003919 -0.050598 -18.634900 -2.192510 6.469440 -0.000001 -179.141000 8.533290 171.915000 -39.081100 -0.002282 -0.040193 0.022230 -0.026211 35.853900 -40.985400 0.000008 0.000006 14.585500 6.012500 -76.780000 -11.754300 -0.000006 -0.000006 -0.834670 -1.008980 -18.474300
